<svg width="486" height="394" viewBox="0 0 486 394" fill="none" xmlns="http://www.w3.org/2000/svg">
<g clip-path="url(#clip0_5_334)">
<path d="M387.71 71.7681C385.19 99.5725 378.012 128.891 366.753 157.179C352.83 192.161 333.808 222.973 311.743 246.284L310.519 245.215C332.477 222.016 351.413 191.34 365.277 156.502C377.807 125.021 385.26 92.2589 386.84 61.7737L388.404 62.0361C388.238 65.2557 388.007 68.4997 387.71 71.7681Z" fill="#F2F2F2"/>
<path d="M397.746 233.251C366.754 282.629 329.154 317.91 291.872 332.594L291.118 331.209C328.142 316.627 365.522 281.526 396.372 232.374L397.746 233.251Z" fill="#F2F2F2"/>
<path d="M386.958 106.386C384.438 134.19 377.259 163.508 366.001 191.796C352.078 226.779 333.056 257.591 310.991 280.902L309.766 279.832C331.725 256.633 350.66 225.957 364.525 191.12C377.055 159.638 384.508 126.876 386.087 96.3913L387.652 96.6537C387.486 99.8733 387.255 103.117 386.958 106.386Z" fill="#F2F2F2"/>
<path d="M39.0332 177.768H18.6986C18.2642 177.769 17.8352 177.671 17.4438 177.483C17.0524 177.294 16.7087 177.019 16.4386 176.678C16.1718 176.346 15.9836 175.957 15.8881 175.542C15.7925 175.127 15.7921 174.695 15.887 174.279C17.8237 165.722 17.702 156.825 15.532 148.324C15.3948 147.764 15.428 147.176 15.6273 146.635C15.8267 146.094 16.1831 145.626 16.6506 145.29C27.1067 137.759 35.3411 137.977 41.1255 145.94C41.3862 146.303 41.5595 146.722 41.6316 147.163C43.1771 156.468 43.2626 165.958 41.8851 175.289C41.7893 175.978 41.4476 176.608 40.9233 177.064C40.399 177.52 39.7275 177.77 39.0332 177.768Z" fill="#E6E6E6"/>
<path d="M32.7289 157.375H25.7337C25.3469 157.375 24.9759 157.221 24.7024 156.947C24.4289 156.673 24.2753 156.302 24.2753 155.914C24.2753 155.527 24.4289 155.155 24.7024 154.881C24.9759 154.608 25.3469 154.454 25.7337 154.454H32.7289C33.1151 154.454 33.4853 154.609 33.7582 154.883C34.031 155.156 34.1843 155.527 34.1843 155.914C34.1843 156.301 34.031 156.672 33.7582 156.946C33.4853 157.22 33.1151 157.374 32.7289 157.375Z" fill="white"/>
<path d="M32.7289 162.497H25.7337C25.3469 162.497 24.9759 162.344 24.7024 162.07C24.4289 161.796 24.2753 161.424 24.2753 161.037C24.2753 160.649 24.4289 160.278 24.7024 160.004C24.9759 159.73 25.3469 159.576 25.7337 159.576H32.7289C33.1151 159.577 33.4853 159.731 33.7582 160.005C34.031 160.279 34.1843 160.65 34.1843 161.037C34.1843 161.424 34.031 161.795 33.7582 162.069C33.4853 162.342 33.1151 162.497 32.7289 162.497Z" fill="white"/>
<path d="M32.7289 167.62H25.7337C25.3469 167.62 24.9759 167.466 24.7024 167.192C24.4289 166.918 24.2753 166.547 24.2753 166.159C24.2753 165.772 24.4289 165.4 24.7024 165.126C24.9759 164.852 25.3469 164.699 25.7337 164.699H32.7289C33.1151 164.699 33.4853 164.854 33.7582 165.127C34.031 165.401 34.1843 165.772 34.1843 166.159C34.1843 166.546 34.031 166.917 33.7582 167.191C33.4853 167.465 33.1151 167.619 32.7289 167.62Z" fill="white"/>
<path d="M408.592 268.692H388.258C387.824 268.693 387.394 268.595 387.003 268.407C386.612 268.218 386.268 267.943 385.998 267.602C385.731 267.27 385.543 266.882 385.447 266.466C385.352 266.051 385.351 265.619 385.446 265.204C387.383 256.646 387.261 247.749 385.091 239.248C384.954 238.688 384.987 238.1 385.187 237.559C385.386 237.019 385.742 236.55 386.21 236.214C396.666 228.683 404.9 228.901 410.685 236.865C410.946 237.227 411.119 237.646 411.191 238.087C412.736 247.392 412.822 256.882 411.444 266.213C411.349 266.902 411.007 267.532 410.483 267.988C409.958 268.444 409.287 268.694 408.592 268.692Z" fill="#E6E6E6"/>
<path d="M402.288 248.299H395.293C394.907 248.298 394.537 248.144 394.264 247.87C393.991 247.596 393.838 247.225 393.838 246.838C393.838 246.452 393.991 246.08 394.264 245.807C394.537 245.533 394.907 245.379 395.293 245.378H402.288C402.675 245.378 403.046 245.532 403.319 245.806C403.593 246.079 403.747 246.451 403.747 246.838C403.747 247.226 403.593 247.597 403.319 247.871C403.046 248.145 402.675 248.299 402.288 248.299Z" fill="white"/>
<path d="M402.288 253.422H395.293C394.907 253.421 394.537 253.266 394.264 252.993C393.991 252.719 393.838 252.348 393.838 251.961C393.838 251.574 393.991 251.203 394.264 250.929C394.537 250.655 394.907 250.501 395.293 250.5H402.288C402.675 250.5 403.046 250.654 403.319 250.928C403.593 251.202 403.747 251.573 403.747 251.961C403.747 252.348 403.593 252.72 403.319 252.994C403.046 253.268 402.675 253.422 402.288 253.422Z" fill="white"/>
<path d="M402.288 258.544H395.293C394.907 258.543 394.537 258.389 394.264 258.115C393.991 257.841 393.838 257.47 393.838 257.083C393.838 256.697 393.991 256.325 394.264 256.052C394.537 255.778 394.907 255.624 395.293 255.623H402.288C402.675 255.623 403.046 255.777 403.319 256.051C403.593 256.324 403.747 256.696 403.747 257.083C403.747 257.471 403.593 257.842 403.319 258.116C403.046 258.39 402.675 258.544 402.288 258.544Z" fill="white"/>
<path d="M485.538 393.238C485.538 393.338 485.518 393.437 485.48 393.53C485.442 393.623 485.386 393.707 485.315 393.777C485.245 393.848 485.161 393.904 485.068 393.943C484.976 393.981 484.877 394 484.777 394H1.22314C1.02135 394 0.827827 393.92 0.685139 393.777C0.54245 393.634 0.46228 393.44 0.46228 393.238C0.46228 393.036 0.54245 392.842 0.685139 392.699C0.827827 392.556 1.02135 392.476 1.22314 392.476H484.777C484.877 392.476 484.976 392.495 485.068 392.533C485.161 392.572 485.245 392.628 485.315 392.699C485.386 392.769 485.442 392.853 485.48 392.946C485.518 393.039 485.538 393.138 485.538 393.238Z" fill="#CCCCCC"/>
<path d="M128.02 346.585L126.752 328.92C118.444 324.761 109.248 322.695 99.9626 322.903C113.026 333.016 111.98 353.227 121.027 367.059C123.882 371.351 127.664 374.945 132.095 377.575C136.525 380.204 141.489 381.801 146.62 382.248L157.492 388.512C158.735 380.28 158.182 371.876 155.87 363.879C153.559 355.882 149.543 348.481 144.1 342.188C141.012 338.688 137.496 335.591 133.635 332.971C131.259 339.803 128.02 346.585 128.02 346.585Z" fill="#F2F2F2"/>
<path d="M357.98 349.146L359.248 331.481C367.556 327.322 376.752 325.257 386.037 325.465C372.974 335.577 374.02 355.788 364.973 369.62C362.118 373.913 358.336 377.507 353.905 380.136C349.475 382.765 344.511 384.363 339.38 384.809L328.508 391.073C327.264 382.841 327.818 374.437 330.129 366.44C332.441 358.443 336.457 351.043 341.899 344.749C344.988 341.249 348.504 338.152 352.365 335.532C354.741 342.365 357.98 349.146 357.98 349.146Z" fill="#F2F2F2"/>
<path d="M237.246 149.796C243.955 149.796 249.394 144.349 249.394 137.63C249.394 130.911 243.955 125.464 237.246 125.464C230.536 125.464 225.097 130.911 225.097 137.63C225.097 144.349 230.536 149.796 237.246 149.796Z" fill="#FF7A11"/>
<path d="M243.482 132.56C243.299 132.385 243.056 132.288 242.804 132.288C242.551 132.288 242.308 132.385 242.125 132.56C239.548 134.618 237.233 136.987 235.232 139.611C234.741 138.659 234.249 137.708 233.758 136.756C233.191 135.657 231.536 136.628 232.102 137.725C232.82 139.118 233.539 140.51 234.257 141.902C234.344 142.044 234.466 142.161 234.611 142.243C234.756 142.324 234.919 142.367 235.085 142.367C235.252 142.367 235.415 142.324 235.56 142.243C235.705 142.161 235.827 142.044 235.914 141.902C238.046 138.895 240.594 136.206 243.482 133.918C243.66 133.737 243.76 133.493 243.76 133.239C243.76 132.984 243.66 132.74 243.482 132.56Z" fill="white"/>
<path d="M182.889 172.128L164.57 143.317L185.783 131.939L191.35 153.921L230.58 175.15C232.128 174.592 233.806 174.497 235.408 174.878C237.009 175.258 238.466 176.096 239.6 177.291C240.734 178.486 241.496 179.985 241.794 181.606C242.092 183.228 241.912 184.901 241.277 186.421C240.642 187.942 239.578 189.245 238.217 190.171C236.855 191.097 235.253 191.606 233.608 191.636C231.962 191.667 230.343 191.217 228.948 190.341C227.553 189.466 226.443 188.203 225.752 186.707L182.889 172.128Z" fill="#A0616A"/>
<path d="M151.186 108.761C145.43 117.224 165.885 147.988 165.885 147.988C166.881 145.837 176.407 169.993 178.003 168.566C182.537 164.51 189.635 153.213 193.581 152.71C195.837 152.422 188.348 136.396 188.348 136.396C188.348 136.396 184.925 126.932 180.28 114.844C179.03 111.402 176.931 108.332 174.178 105.921C171.425 103.51 168.108 101.836 164.535 101.054C164.535 101.054 156.942 100.297 151.186 108.761Z" fill="#3F3D56"/>
<path d="M151.467 384.501L160.167 384.5L164.306 350.893L151.465 350.894L151.467 384.501Z" fill="#A0616A"/>
<path d="M149.247 381.656L151.696 381.656L161.257 377.762L166.381 381.655H166.382C169.277 381.655 172.055 382.808 174.102 384.858C176.15 386.909 177.3 389.69 177.301 392.59V392.945L149.248 392.946L149.247 381.656Z" fill="#464F53"/>
<path d="M191.886 384.501L200.586 384.5L204.725 350.893L191.884 350.894L191.886 384.501Z" fill="#A0616A"/>
<path d="M189.667 381.656L192.115 381.656L201.676 377.762L206.8 381.655H206.801C209.697 381.655 212.474 382.808 214.522 384.858C216.569 386.909 217.72 389.69 217.72 392.59V392.945L189.667 392.946L189.667 381.656Z" fill="#464F53"/>
<path d="M195.652 200.771L139.062 202.187C128.315 208.033 128.152 220.686 131.673 235.709C131.673 235.709 130.484 244.638 132.862 247.019C135.239 249.4 136.428 249.4 135.239 253.567C134.051 257.734 140.332 264.54 139.569 265.304C138.806 266.068 137.023 270.235 137.023 270.235L142.967 304.165C142.967 304.165 147.127 363.097 148.316 364.287C149.505 365.478 150.694 364.287 149.505 367.263C148.316 370.24 147.127 369.049 148.316 370.24C149.369 371.377 150.361 372.569 151.288 373.811H165.659C165.659 373.811 166.743 367.859 166.743 367.263C166.743 366.668 167.931 363.097 167.931 362.501C167.931 361.906 166.881 360.854 166.881 360.854C166.518 359.644 166.272 358.401 166.148 357.144C166.148 355.953 162.582 310.118 162.582 310.118L169.715 250.591L186.952 308.927C186.952 308.927 186.952 360.12 188.141 361.311C189.33 362.501 189.33 361.906 188.735 364.287C188.141 366.668 185.763 366.073 187.547 367.859C189.33 369.644 189.924 366.668 189.33 369.645L188.735 372.621L206.567 372.876C206.567 372.876 208.945 367.859 207.756 366.073C206.567 364.287 206.639 364.775 208.089 361.852C209.539 358.93 210.134 358.334 209.539 357.739C208.945 357.144 208.945 353.978 208.945 353.978L205.973 297.022C205.973 297.022 205.379 236.9 205.379 235.114C205.334 234.195 205.503 233.278 205.872 232.436V230.012L203.595 221.423L195.652 200.771Z" fill="#464F53"/>
<path d="M161.658 82.9298C171.368 82.9298 179.24 75.0462 179.24 65.3214C179.24 55.5966 171.368 47.7131 161.658 47.7131C151.947 47.7131 144.075 55.5966 144.075 65.3214C144.075 75.0462 151.947 82.9298 161.658 82.9298Z" fill="#A0616A"/>
<path d="M170.449 94.5677C174.237 96.8229 176.503 100.967 177.804 105.183C180.212 112.99 181.661 121.061 182.12 129.219L183.494 153.641L200.51 205.643C185.763 218.139 130.332 208.483 130.332 208.483C130.332 208.483 128.631 207.915 130.332 206.211C132.034 204.507 133.69 206.017 131.989 204.313C130.287 202.609 131.46 204.507 132.027 202.803C132.594 201.099 132.027 202.235 131.46 201.667C130.893 201.099 135.851 195.987 135.851 195.987L131.313 166.137L125.642 105.928C132.448 97.4077 146.136 92.3851 146.136 92.3851L149.673 86.0095L167.357 87.4263L170.449 94.5677Z" fill="#3F3D56"/>
<path d="M176.152 55.9664C177.518 56.9871 178.531 58.4114 179.046 60.0387C179.245 57.3794 179.257 54.7094 179.084 52.0484C178.877 50.1785 177.562 49.7578 176.04 49.2705C174.665 48.8301 173.111 48.3327 172.693 46.5175C167.166 41.1329 157.544 41.4044 150.96 43.2826C147.336 44.3162 145.252 45.6441 145.065 46.422L145.027 46.5821L144.879 46.6558C142.087 48.0543 141.543 52.4704 141.579 55.9287C141.647 62.4444 143.893 69.8446 145.159 70.4457C145.226 70.4776 145.243 70.4651 145.272 70.4409C147.177 68.9158 149.502 70.5568 150.524 71.4488C151.126 67.3992 153.067 63.6686 156.035 60.8529C159.003 58.0372 162.827 56.2987 166.898 55.9152C168.227 55.7866 169.546 55.5651 170.844 55.2525C171.503 55.0819 172.18 54.9929 172.86 54.9876C174.032 54.9697 175.18 55.3113 176.152 55.9664Z" fill="#464F53"/>
<path d="M285.303 214.801L319.125 180.405L328.036 152.895L313.696 147.086C306.593 154.262 299.28 176.23 299.28 176.23L276.195 207.258C276.011 207.327 275.827 207.4 275.646 207.485C274.583 207.988 273.668 208.757 272.988 209.717C272.308 210.677 271.888 211.797 271.767 212.968C271.645 214.139 271.828 215.321 272.296 216.401C272.765 217.48 273.503 218.42 274.441 219.13C275.378 219.841 276.483 220.297 277.647 220.454C278.812 220.612 279.998 220.466 281.09 220.031C282.182 219.596 283.143 218.886 283.881 217.97C284.619 217.054 285.109 215.962 285.303 214.801Z" fill="#FFB8B8"/>
<path d="M309.785 150.233L327.919 155.487L327.987 155.474C334.653 154.178 339.926 143.084 343.175 134.005C344.244 131.011 344.138 127.722 342.878 124.803C341.618 121.884 339.299 119.553 336.388 118.281C334.235 117.357 331.867 117.055 329.551 117.409C327.235 117.762 325.065 118.757 323.284 120.282L314.242 128.079L309.785 150.233Z" fill="#FF7A11"/>
<path d="M294.269 383.479L284.516 383.478L279.877 345.806L294.27 345.806L294.269 383.479Z" fill="#FFB8B8"/>
<path d="M296.757 380.29L294.012 380.29L283.294 375.925L277.55 380.289H277.549C274.303 380.289 271.19 381.581 268.894 383.88C266.599 386.178 265.309 389.296 265.309 392.547V392.945L296.756 392.946L296.757 380.29Z" fill="#464F53"/>
<path d="M337.544 383.479L327.791 383.478L323.151 345.806L337.546 345.806L337.544 383.479Z" fill="#FFB8B8"/>
<path d="M340.032 380.29L337.287 380.29L326.569 375.925L320.825 380.289H320.824C317.578 380.289 314.465 381.581 312.169 383.88C309.874 386.178 308.584 389.296 308.584 392.547V392.945L340.031 392.946L340.032 380.29Z" fill="#464F53"/>
<path d="M352.415 221.208C352.415 221.208 353.554 234.894 350.707 248.009C347.86 261.125 347.86 298.062 347.86 298.062L341.596 370.04L322.806 368.33L317.681 248.009L299.46 288.496L301.168 294.199L298.893 295.624C298.893 295.624 300.599 306.744 299.46 306.744C298.321 306.744 295.474 308.455 295.474 308.455L297.752 367.189L278.392 366.619L271.559 283.934L278.961 236.604L279.531 227.48L282.093 227.586L283.398 223.774L285.794 217.216L352.415 221.208Z" fill="#464F53"/>
<path d="M353.399 224.082L353.501 223.94C358.921 216.341 350.769 198.08 349.54 195.433L354.718 193.75L353.552 183.824L352.999 179.398L356.957 175.435L356.968 175.336L359.246 155.377L362.558 142.121C363.805 137.11 363.699 131.856 362.249 126.9C360.8 121.943 358.059 117.462 354.309 113.917L346.654 106.689L337.352 92.9039H322.35L317.206 102.634C312.219 103.788 307.794 106.658 304.702 110.744C301.611 114.829 300.049 119.871 300.288 124.992L301.453 150.511L296.889 182.285L296.887 188.036L291.751 193.752L292.872 199.368L288.963 201.045L287.237 209.111C286.523 210.055 281.808 216.351 281.808 218.072C281.808 218.33 281.999 218.58 282.408 218.857C285.621 221.036 303.379 225.477 311.239 222.328C319.611 218.975 352.891 224.005 353.226 224.056L353.399 224.082Z" fill="#FF7A11"/>
<path d="M327.913 88.4538C338.886 88.4538 347.781 79.5455 347.781 68.5565C347.781 57.5675 338.886 48.6592 327.913 48.6592C316.94 48.6592 308.044 57.5675 308.044 68.5565C308.044 79.5455 316.94 88.4538 327.913 88.4538Z" fill="#FFB8B8"/>
<path d="M326.009 88.776C329.086 88.7445 332.155 88.4499 335.182 87.8953C338.178 87.2039 344.79 82.084 346.592 79.0594C347.931 76.8121 348.734 73.3361 349.173 70.8159C349.765 67.4807 349.651 64.0581 348.838 60.7699C348.025 57.4816 346.532 54.4009 344.455 51.7274C343.654 50.6073 342.566 49.7249 341.305 49.1733C341.194 49.1329 341.079 49.0975 340.964 49.0678C339.137 48.6365 337.48 47.6682 336.206 46.2873C335.959 46.0077 335.692 45.7463 335.407 45.5051C333.979 44.3596 332.3 43.5689 330.507 43.1977C327.612 42.5013 323.47 43.374 318.197 45.7936C315.548 47.0092 312.608 46.6701 310.342 46.2388C310.215 46.2176 310.084 46.2301 309.964 46.2751C309.843 46.32 309.736 46.3958 309.654 46.495C308.718 47.4212 307.467 47.9585 306.152 47.9988C305.347 48.0551 304.531 49.1939 303.547 50.6768C303.324 51.0134 303.063 51.4063 302.874 51.6461L302.837 51.1958L302.394 51.7106C301.698 52.5198 301.218 53.4921 300.998 54.537C300.779 55.582 300.827 56.6656 301.138 57.687C301.449 58.7083 302.013 59.6342 302.778 60.3784C303.543 61.1226 304.483 61.6609 305.512 61.9432C306.327 62.1382 307.161 62.2492 307.999 62.2746C308.508 62.3071 309.033 62.3408 309.538 62.4152C311.16 62.7043 312.679 63.4096 313.948 64.4623C315.216 65.515 316.19 66.8791 316.775 68.4214C316.913 68.7778 317.131 69.0976 317.412 69.3563C317.693 69.6149 318.03 69.8054 318.396 69.913C318.762 70.0207 319.149 70.0426 319.525 69.977C319.901 69.9115 320.257 69.7603 320.565 69.5351C321.078 69.1132 321.686 68.8219 322.336 68.6859C322.985 68.55 323.658 68.5735 324.297 68.7544C324.853 69.0452 325.292 69.5184 325.54 70.0948C325.841 70.7362 326.325 71.2735 326.932 71.6381C329 72.6394 329.261 77.3052 328.628 81.2167C328.018 84.987 326.691 87.7374 325.401 87.905C324.408 88.0339 324.296 88.1077 324.229 88.2859L324.168 88.4455L324.284 88.5903C324.839 88.7757 325.428 88.8391 326.009 88.776Z" fill="#464F53"/>
<path d="M309.526 152.361L299.975 140.175C290.247 142.858 272.987 158.265 272.987 158.265L237.539 173.671C236.356 173.472 235.141 173.588 234.017 174.009C232.893 174.429 231.9 175.139 231.137 176.066C230.374 176.993 229.868 178.105 229.671 179.29C229.473 180.476 229.591 181.692 230.012 182.817C230.434 183.942 231.143 184.936 232.07 185.699C232.997 186.462 234.108 186.967 235.291 187.163C236.475 187.359 237.689 187.24 238.812 186.817C239.935 186.394 240.927 185.682 241.688 184.753L288.124 171.779L309.526 152.361Z" fill="#FFB8B8"/>
<path d="M307.237 155.147L322.305 138.325L323.142 126.405C323.298 124.064 322.797 121.726 321.695 119.656C320.594 117.585 318.936 115.865 316.91 114.688C314.152 113.112 310.899 112.643 307.81 113.376C304.72 114.11 302.023 115.991 300.266 118.64C294.941 126.676 289.213 137.541 292.16 143.667L292.19 143.729L307.237 155.147Z" fill="#FF7A11"/>
<path d="M168.349 218.378L129.185 198.291C126.399 196.862 125.476 193.072 127.128 189.842L152.664 139.909C154.315 136.679 157.925 135.214 160.711 136.643L199.876 156.73C202.661 158.159 203.584 161.949 201.933 165.178L176.397 215.112C174.745 218.342 171.135 219.807 168.349 218.378Z" fill="#E6E6E6"/>
<path d="M161.658 209.144L135.049 195.496C132.44 194.158 131.575 190.608 133.122 187.584L154.337 146.1C155.884 143.075 159.265 141.703 161.874 143.041L194.012 159.525C196.621 160.863 197.485 164.412 195.938 167.437L184.413 189.973C177.524 203.446 173.279 215.104 161.658 209.144Z" fill="white"/>
<path d="M174.814 186.489L151.245 174.401C150.957 174.195 150.752 173.893 150.669 173.548C150.585 173.204 150.627 172.841 150.789 172.526C150.95 172.21 151.219 171.964 151.547 171.831C151.875 171.698 152.24 171.687 152.575 171.801L176.143 183.889C176.431 184.095 176.636 184.397 176.72 184.742C176.804 185.086 176.761 185.449 176.6 185.764C176.438 186.08 176.169 186.326 175.841 186.46C175.513 186.593 175.149 186.603 174.814 186.489Z" fill="#FF7A11"/>
<path d="M153.997 182.296L148.618 179.538C148.33 179.332 148.125 179.03 148.042 178.685C147.958 178.341 148 177.978 148.162 177.663C148.323 177.347 148.592 177.1 148.92 176.967C149.248 176.834 149.613 176.824 149.948 176.938L155.326 179.696C155.615 179.902 155.819 180.205 155.903 180.549C155.987 180.893 155.944 181.256 155.783 181.572C155.622 181.887 155.353 182.134 155.025 182.267C154.697 182.4 154.332 182.41 153.997 182.296Z" fill="#FF7A11"/>
<path d="M160.896 192.319L145.991 184.675C145.703 184.469 145.498 184.166 145.415 183.822C145.331 183.478 145.373 183.115 145.535 182.799C145.696 182.484 145.965 182.237 146.293 182.104C146.621 181.971 146.986 181.961 147.321 182.075L162.226 189.719C162.514 189.925 162.718 190.227 162.802 190.572C162.886 190.916 162.843 191.279 162.682 191.594C162.521 191.91 162.252 192.156 161.924 192.29C161.596 192.423 161.231 192.433 160.896 192.319Z" fill="#FF7A11"/>
<path d="M184.14 168.252L160.572 156.164C160.284 155.958 160.079 155.655 159.995 155.311C159.911 154.967 159.954 154.604 160.115 154.289C160.276 153.973 160.546 153.726 160.874 153.593C161.202 153.46 161.566 153.45 161.901 153.564L185.47 165.652C185.758 165.857 185.963 166.16 186.046 166.504C186.13 166.849 186.088 167.212 185.926 167.527C185.765 167.842 185.496 168.089 185.168 168.222C184.84 168.355 184.475 168.366 184.14 168.252Z" fill="#FF7A11"/>
<path d="M163.323 164.059L157.945 161.3C157.657 161.095 157.452 160.792 157.368 160.448C157.284 160.104 157.327 159.741 157.488 159.425C157.65 159.11 157.919 158.863 158.247 158.73C158.575 158.597 158.939 158.586 159.275 158.7L164.653 161.459C164.941 161.665 165.146 161.967 165.23 162.312C165.314 162.656 165.271 163.019 165.11 163.334C164.948 163.65 164.679 163.896 164.351 164.03C164.023 164.163 163.658 164.173 163.323 164.059Z" fill="#FF7A11"/>
<path d="M170.222 174.082L155.318 166.437C155.03 166.232 154.825 165.929 154.741 165.585C154.657 165.241 154.7 164.878 154.861 164.562C155.023 164.247 155.292 164 155.62 163.867C155.948 163.734 156.313 163.723 156.648 163.837L171.552 171.482C171.84 171.687 172.045 171.99 172.129 172.334C172.213 172.679 172.17 173.042 172.009 173.357C171.847 173.672 171.578 173.919 171.25 174.052C170.922 174.185 170.557 174.196 170.222 174.082Z" fill="#FF7A11"/>
<path d="M135.895 174.906L127.047 141.919L150.691 137.436L149.42 160.078L180.485 192.113C182.13 192.046 183.759 192.459 185.173 193.303C186.587 194.146 187.726 195.384 188.45 196.864C189.173 198.344 189.452 200.004 189.25 201.64C189.049 203.276 188.376 204.818 187.315 206.078C186.254 207.338 184.849 208.261 183.273 208.736C181.696 209.21 180.016 209.215 178.437 208.749C176.858 208.284 175.448 207.368 174.38 206.115C173.311 204.861 172.63 203.322 172.42 201.688L135.895 174.906Z" fill="#A0616A"/>
<path d="M124.628 104.933C116.602 111.278 126.903 146.77 126.903 146.77C128.498 145.017 130.351 170.922 132.301 170.04C137.841 167.533 147.995 158.888 151.91 159.593C154.149 159.996 151.804 142.458 151.804 142.458C151.804 142.458 151.372 132.402 150.561 119.475C150.4 115.816 149.316 112.257 147.412 109.13C145.508 106.003 142.845 103.41 139.67 101.591C139.67 101.591 132.653 98.5883 124.628 104.933Z" fill="#3F3D56"/>
<path d="M258.165 248.123L236.793 238.016C236.336 237.801 235.934 237.486 235.616 237.093C235.298 236.7 235.073 236.24 234.958 235.747C234.843 235.266 234.837 234.764 234.943 234.28C235.048 233.796 235.262 233.342 235.567 232.952C241.758 225.029 246.009 215.762 247.979 205.897C248.128 205.141 248.534 204.461 249.128 203.972C249.721 203.482 250.466 203.215 251.235 203.214C262.135 203.251 270.281 207.237 275.447 215.059C275.719 215.466 275.9 215.927 275.976 216.411C276.052 216.895 276.022 217.39 275.887 217.861C272.896 228.185 268.345 237.99 262.391 246.935C261.949 247.611 261.278 248.104 260.501 248.323C259.724 248.541 258.894 248.47 258.165 248.123Z" fill="#E6E6E6"/>
<path d="M264.452 233.948L248.111 226.22C247.705 226.028 247.391 225.682 247.239 225.258C247.087 224.834 247.11 224.367 247.302 223.96C247.494 223.553 247.84 223.239 248.263 223.087C248.686 222.935 249.152 222.957 249.559 223.15L265.9 230.877C266.101 230.973 266.282 231.107 266.432 231.272C266.581 231.437 266.697 231.63 266.772 231.84C266.847 232.05 266.88 232.272 266.869 232.495C266.859 232.718 266.804 232.936 266.709 233.138C266.614 233.339 266.48 233.52 266.315 233.67C266.151 233.82 265.958 233.935 265.748 234.011C265.539 234.086 265.316 234.119 265.094 234.108C264.872 234.097 264.654 234.043 264.452 233.948Z" fill="white"/>
<path d="M266.991 228.564L250.65 220.836C250.243 220.644 249.929 220.298 249.778 219.874C249.626 219.45 249.649 218.983 249.841 218.576C250.033 218.169 250.378 217.855 250.801 217.703C251.225 217.551 251.691 217.574 252.097 217.766L268.438 225.494C268.845 225.686 269.159 226.032 269.31 226.456C269.462 226.88 269.44 227.347 269.248 227.754C269.056 228.161 268.71 228.475 268.287 228.627C267.864 228.779 267.397 228.756 266.991 228.564Z" fill="white"/>
<path d="M245.156 59.5585L243.634 59.7254C236.852 33.0345 223.706 14.5433 205.616 6.25052C182.619 -4.29105 154.182 2.78781 125.544 26.1834C96.7606 49.6984 71.2794 86.8419 53.7953 130.774L52.3193 130.097C69.8802 85.9736 95.4922 48.6506 124.437 25.0049C153.527 1.23962 182.544 -5.89115 206.143 4.92643C224.752 13.4568 238.242 32.3484 245.156 59.5585Z" fill="#F2F2F2"/>
<path d="M77.3358 94.3201C73.3578 102.712 69.5741 111.407 66.0897 120.162C46.0385 170.543 35.8775 221.995 36.7078 268.959L35.1407 268.792C34.3095 221.653 44.4998 170.023 64.6137 119.485C68.1082 110.706 71.9026 101.987 75.8921 93.5707L77.3358 94.3201Z" fill="#F2F2F2"/>
<path d="M76.5836 128.938C72.6056 137.33 68.8219 146.024 65.3375 154.779C45.2863 205.16 35.1253 256.613 35.9556 303.577L34.3885 303.409C33.5573 256.271 43.7476 204.641 63.8616 154.103C67.356 145.323 71.1504 136.604 75.1399 128.188L76.5836 128.938Z" fill="#F2F2F2"/>
<path d="M34.4639 141.528C36.1962 138.92 35.1708 135.187 32.1737 133.19C29.1765 131.193 25.3424 131.688 23.6101 134.296C21.8777 136.904 22.9031 140.636 25.9003 142.633C28.8975 144.63 32.7315 144.135 34.4639 141.528Z" fill="#CCCCCC"/>
<path d="M403.347 235.697C405.079 233.09 404.054 229.357 401.056 227.36C398.059 225.363 394.225 225.858 392.493 228.466C390.761 231.073 391.786 234.806 394.783 236.803C397.78 238.8 401.614 238.305 403.347 235.697Z" fill="#CCCCCC"/>
</g>
<defs>
<clipPath id="clip0_5_334">
<rect width="485.075" height="394" fill="white" transform="translate(0.46228)"/>
</clipPath>
</defs>
</svg>
